<?xml version="1.0" encoding="UTF-8" standalone="no"?>
<!DOCTYPE svg PUBLIC "-//W3C//DTD SVG 1.1//EN" "http://www.w3.org/Graphics/SVG/1.1/DTD/svg11.dtd">
<svg class="railroad-diagram" width="433" height="116" viewBox="0 0 433 116" xmlns="http://www.w3.org/2000/svg" xmlns:xlink="http://www.w3.org/1999/xlink"><g transform="translate(.5 .5)"><g><path d="M20 21v20m0 -10h20"></path></g><g><path d="M40 31h0"></path><path d="M393 31h0"></path><path d="M40 31h20"></path><g><path d="M60 31h0"></path><g><path d="M60 31h10"></path><path d="M363 31h10"></path><g><path d="M70 31h0"></path><path d="M297.5 31h0"></path><path d="M70 31h10"></path><g><path d="M80 31h0"></path><path d="M287.5 31h0"></path><path d="M80 31h20"></path><g><path d="M100 31h0"></path><g><path d="M100 31h10"></path><path d="M257.5 31h10"></path><g class="non-terminal "><path d="M110 31h0"></path><path d="M257.5 31h0"></path><rect x="110" y="20" width="147.5" height="22" rx="10" ry="10"></rect><text x="183.75" y="35">rule_definition</text></g></g><path d="M267.5 31h0"></path></g><path d="M267.5 31h20"></path><path d="M80 31a10 10 0 0 1 10 10v18a10 10 0 0 0 10 10"></path><g><path d="M100 69h17"></path><g><path d="M117 69h10"></path><path d="M240.5 69h10"></path><g><path d="M127 69h0"></path><path d="M240.5 69h0"></path><g class="comment "><path d="M127 69h0"></path><path d="M158 69h0"></path><text x="142.5" y="74" class="comment">not</text></g><path d="M158 69h10"></path><path d="M168 69h10"></path><g class="terminal "><path d="M178 69h0"></path><path d="M240.5 69h0"></path><rect x="178" y="58" width="62.5" height="22"></rect><text x="209.25" y="73">"::="</text></g></g></g><path d="M250.5 69h17"></path></g><path d="M267.5 69a10 10 0 0 0 10 -10v-18a10 10 0 0 1 10 -10"></path></g><path d="M287.5 31h10"></path><path d="M80 31a10 10 0 0 0 -10 10v45a10 10 0 0 0 10 10"></path><g><path d="M80 96h207.5"></path></g><path d="M287.5 96a10 10 0 0 0 10 -10v-45a10 10 0 0 0 -10 -10"></path></g><path d="M297.5 31h10"></path><path d="M307.5 31h10"></path><g class="terminal "><path d="M317.5 31h0"></path><path d="M363 31h0"></path><rect x="317.5" y="20" width="45.5" height="22"></rect><text x="340.25" y="35">EOF</text></g></g><path d="M373 31h0"></path></g><path d="M373 31h20"></path></g><path d="M 393 31 h 20 m 0 -10 v 20"></path></g><defs><style type="text/css"><![CDATA[
svg.railroad-diagram path { stroke-width: 2; stroke: darkgray; fill: rgba(0, 0, 0, 0);}/* All text except comments. */svg.railroad-diagram text { font: bold 12px Hack, "Source Code Pro", monospace; text-anchor: middle; fill: #404040;}/* Comment text */svg.railroad-diagram text.comment { font: italic 10px Hack, "Source Code Pro", monospace; fill: #404040;}/* The terminal boxes. */svg.railroad-diagram g.terminal rect { stroke-width: 2; stroke: #404040; fill: rgba(200, 200, 200, 1);}svg.railroad-diagram g.non-terminal rect { /* The non-terminal boxes. */ stroke-width: 2; stroke: #404040; fill: rgba(255, 255, 255, 1);}/* Multiple choice text, not working atm. */svg.railroad-diagram text.diagram-text { font-size: 12px Hack, "Source Code Pro", monospace; fill: red;}/* Multiple choice text, not working atm. */svg.railroad-diagram path.diagram-text { stroke-width: 1; stroke: red; fill: red; cursor: help;}
 ]]>
</style></defs></svg>