<?xml version="1.0" standalone="no"?>
<!DOCTYPE svg PUBLIC "-//W3C//DTD SVG 20010904//EN"
 "http://www.w3.org/TR/2001/REC-SVG-20010904/DTD/svg10.dtd">
<svg version="1.0" xmlns="http://www.w3.org/2000/svg"
 width="512.000000pt" height="512.000000pt" viewBox="0 0 512.000000 512.000000"
 preserveAspectRatio="xMidYMid meet">
<metadata>
Created by potrace 1.14, written by Peter Selinger 2001-2017
</metadata>
<g transform="translate(0.000000,512.000000) scale(0.100000,-0.100000)"
fill="#000000" stroke="none">
<path d="M0 2560 l0 -2560 1293 0 1293 0 39 40 c21 22 45 40 52 40 7 0 18 10
24 23 10 19 38 54 89 111 38 42 119 116 127 116 5 0 24 26 43 58 19 31 39 62
45 67 25 24 141 95 181 111 24 9 44 23 44 30 0 7 -15 24 -33 38 -17 14 -26 26
-19 26 7 0 10 5 6 11 -3 6 -1 15 6 19 9 6 7 10 -9 15 -21 6 -30 35 -10 35 5 0
7 5 3 12 -5 8 -2 9 9 5 10 -3 17 -2 17 3 0 5 -9 12 -21 15 l-20 7 21 18 22 19
-40 11 c-22 5 -43 17 -46 25 -3 8 -13 15 -21 15 -9 0 -13 5 -10 11 9 13 -34
51 -49 42 -6 -3 -5 0 1 8 21 22 15 27 -34 35 -38 5 -44 9 -28 15 19 7 19 8 1
8 -11 1 -52 17 -93 36 -84 40 -95 43 -62 16 l23 -19 -25 3 c-14 2 -40 10 -58
19 -17 9 -37 16 -44 15 -21 -2 -57 13 -57 25 0 6 -8 2 -16 -9 -15 -20 -16 -20
-29 -1 -8 10 -12 23 -9 27 9 15 -13 10 -26 -6 -11 -13 -14 -13 -29 3 -9 11
-22 17 -28 15 -8 -3 -13 6 -14 24 -1 15 -3 21 -6 11 -2 -10 -10 -15 -19 -11
-8 3 -14 -1 -14 -8 0 -10 -3 -10 -12 -1 -9 9 -16 8 -32 -6 -20 -17 -20 -17 -3
10 28 44 17 66 -17 33 -19 -19 -26 -19 -26 0 0 8 -18 23 -40 32 -22 10 -40 21
-40 25 0 4 -7 5 -16 1 -9 -3 -19 0 -23 6 -5 7 -24 13 -44 14 -28 2 -33 5 -24
15 8 11 5 13 -18 10 -18 -2 -30 2 -33 12 -3 8 -1 12 3 8 4 -4 24 3 44 16 65
41 65 40 59 24 -4 -10 0 -14 16 -14 17 1 21 -4 19 -26 -2 -33 26 -48 34 -18 7
27 21 25 35 -6 10 -21 16 -24 37 -19 14 4 29 11 32 17 4 6 20 8 40 4 36 -7 51
-8 84 -7 11 1 29 1 40 2 58 0 65 2 65 17 0 8 3 12 6 9 4 -3 16 -2 27 4 10 6
34 11 53 11 18 0 35 6 38 14 5 12 35 12 56 -1 6 -3 10 1 10 10 0 11 7 14 25
11 13 -3 27 0 30 5 4 5 19 9 35 9 34 0 60 9 60 20 0 5 -16 6 -35 3 -23 -4 -35
-2 -35 6 0 6 10 11 23 11 20 1 20 2 4 11 -9 6 -15 14 -12 19 7 12 -44 42 -82
47 -35 5 -43 -6 -18 -27 9 -7 13 -15 11 -18 -3 -2 -21 9 -41 27 -20 17 -44 31
-53 31 -10 0 -27 7 -38 15 -12 8 -23 12 -26 10 -3 -3 -23 13 -46 34 -23 22
-44 36 -47 31 -3 -5 -1 -11 4 -15 6 -3 8 -12 4 -20 -4 -12 -12 -8 -35 17 l-30
33 6 -27 c5 -23 3 -28 -13 -28 -14 0 -20 9 -23 36 -2 19 0 37 4 40 4 3 8 1 8
-4 0 -5 13 -8 30 -7 16 1 30 -3 30 -8 0 -5 7 -4 15 3 13 11 13 15 3 22 -8 5
-3 7 14 6 15 -1 30 -8 32 -15 3 -7 15 -13 26 -13 14 0 19 4 14 12 -5 7 -3 8 6
3 7 -4 15 -3 19 3 4 7 13 5 26 -5 16 -13 17 -15 3 -10 -21 7 -25 -8 -4 -16 7
-3 18 -1 24 5 8 8 16 7 28 -3 12 -9 15 -10 10 -1 -5 9 4 12 33 12 23 0 41 -4
41 -10 0 -5 4 -10 10 -10 5 0 9 3 9 8 -1 4 -1 16 0 27 1 15 4 16 10 7 6 -10
10 -10 21 3 11 13 11 19 -3 33 -11 10 -17 12 -17 4 0 -7 5 -12 10 -12 6 0 10
-5 10 -12 0 -6 -9 -3 -21 8 -12 10 -23 18 -26 16 -9 -7 -73 55 -65 63 4 5 2 5
-5 1 -6 -3 -14 -2 -18 4 -3 5 -11 10 -18 10 -8 0 -8 -3 1 -12 22 -22 12 -32
-11 -10 -15 15 -27 18 -37 12 -10 -6 -21 -3 -36 11 -12 11 -28 19 -35 18 -20
-4 -59 11 -59 22 0 6 5 7 11 4 6 -4 5 2 -3 14 -7 12 -19 19 -26 16 -8 -3 -16
3 -19 15 -3 11 -9 17 -14 15 -13 -9 -48 17 -42 32 4 9 10 10 24 2 15 -7 19 -6
19 6 0 11 -10 15 -36 15 -19 0 -33 4 -29 9 3 5 1 12 -5 16 -9 6 3 42 19 55 4
3 12 16 19 30 35 69 47 83 93 113 27 18 49 35 49 40 0 11 -25 8 -37 -4 -7 -7
-20 -9 -30 -5 -13 5 -14 9 -5 15 10 6 7 18 -10 54 -13 26 -27 47 -32 47 -4 0
-6 -6 -3 -14 4 -10 -4 -12 -34 -9 -25 3 -46 0 -56 -9 -10 -8 -42 -13 -85 -13
-62 0 -72 3 -92 26 -12 14 -27 24 -34 23 -7 -1 -8 0 -2 3 13 6 13 40 1 48 -9
5 -27 -32 -23 -47 1 -5 -2 -8 -7 -8 -5 0 -15 -20 -22 -45 -10 -35 -16 -42 -26
-33 -20 17 -22 7 -9 -42 21 -75 32 -95 73 -125 55 -42 93 -83 93 -100 0 -8 5
-15 10 -15 18 0 10 -28 -10 -33 -13 -3 -24 3 -35 19 -17 26 -51 28 -93 5 -45
-24 -342 -6 -326 20 3 5 -7 9 -21 9 -21 0 -26 4 -21 16 6 16 -6 16 -131 10
-189 -10 -224 -13 -237 -26 -12 -12 -13 -11 39 -15 22 -2 55 1 73 5 21 6 30 5
26 -2 -7 -11 158 0 166 12 3 3 16 3 30 0 19 -5 9 -9 -45 -18 -121 -20 -122
-21 -15 -17 119 3 81 -8 -62 -20 -84 -6 -109 -17 -70 -29 18 -6 106 3 237 24
50 8 70 8 75 0 5 -7 22 -9 46 -5 30 5 35 4 22 -5 -9 -5 -38 -12 -65 -15 -35
-4 -42 -3 -28 4 19 9 19 10 -2 10 -37 1 -227 -31 -243 -41 -11 -6 -6 -8 16 -5
25 2 31 0 26 -12 -3 -9 -1 -12 6 -7 7 4 12 2 12 -4 0 -6 8 -9 18 -6 9 3 44 7
77 10 l60 5 -63 -14 c-35 -8 -71 -19 -80 -25 -15 -8 -14 -9 7 -10 20 0 21 -2
11 -15 -7 -8 -22 -16 -34 -16 -20 -1 -20 -2 -1 -6 11 -3 23 -10 26 -15 4 -6
48 6 113 31 59 22 112 41 119 41 7 -1 -28 -16 -76 -35 -48 -18 -103 -40 -121
-49 -18 -8 -45 -14 -61 -13 -38 3 -43 -20 -7 -28 30 -6 76 -45 54 -45 -7 0
-12 5 -12 11 0 8 -4 9 -13 0 -8 -6 -17 -8 -21 -4 -11 11 -79 33 -105 33 -15 0
-21 4 -18 14 3 7 0 19 -6 26 -9 10 -9 11 1 6 7 -4 25 3 43 18 l31 26 -31 0
c-17 0 -56 -11 -87 -25 -75 -33 -80 -31 -16 6 28 17 52 37 52 45 0 8 6 14 13
15 6 0 1 5 -13 10 -14 6 -41 8 -60 6 l-35 -5 30 14 c28 14 25 15 -55 10 l-85
-5 85 20 c47 11 90 21 95 23 6 2 -35 2 -90 1 -91 -3 -97 -2 -70 11 17 7 36 13
44 14 8 0 11 3 7 7 -3 4 -26 6 -49 6 l-42 -1 48 10 c26 6 47 14 47 20 0 5 -5
6 -10 3 -15 -9 -101 6 -94 16 3 5 14 9 25 9 10 0 19 4 19 9 0 12 -29 23 -41
16 -5 -4 -6 0 -3 8 3 8 -2 17 -11 21 -9 3 -13 10 -10 16 6 9 -35 15 -75 11
-13 -2 -13 -1 0 8 8 6 34 11 58 11 23 0 42 5 42 10 0 6 -11 8 -25 4 -15 -4
-25 -2 -25 5 0 6 18 11 41 11 28 0 38 -4 33 -12 -5 -8 23 -10 113 -5 66 4 128
10 137 13 9 3 16 1 16 -5 0 -6 -8 -12 -17 -12 -29 -2 68 -17 115 -18 23 -1 42
-6 42 -12 0 -5 -3 -8 -7 -6 -16 9 -388 18 -374 9 11 -8 11 -10 0 -15 -8 -3 16
-4 53 -3 59 2 69 -1 74 -18 6 -18 14 -19 202 -12 108 4 198 9 200 11 12 11
-14 26 -40 23 -16 -3 -31 -1 -33 3 -3 4 -15 5 -28 2 -16 -4 -11 2 17 22 21 15
56 30 77 32 48 7 62 23 20 23 -24 0 -32 5 -37 25 -5 22 -12 25 -48 25 -41 1
-41 1 -16 15 14 8 21 15 15 16 -5 1 4 5 20 10 23 6 19 7 -20 4 -27 -3 -44 -2
-37 1 10 5 10 11 -2 29 -20 31 -11 53 22 58 21 3 18 5 -13 7 l-40 3 35 7 c23
5 28 8 13 9 -29 1 -29 19 0 31 12 5 18 9 12 10 -5 0 -3 5 5 11 12 9 11 10 -6
6 -17 -3 -20 0 -17 13 4 15 12 17 39 13 31 -5 34 -4 27 13 -3 11 -13 23 -21
28 -21 12 6 27 35 20 32 -8 119 14 135 34 12 15 11 16 -4 4 -10 -8 -22 -12
-29 -10 -6 2 2 10 18 18 15 8 41 27 57 42 39 36 48 35 39 -4 -7 -35 -7 -97 0
-104 2 -2 18 2 36 9 17 7 29 16 25 19 -3 4 4 9 15 13 12 3 21 10 21 15 0 5 11
26 25 46 26 39 32 89 16 140 -5 16 -12 55 -15 86 l-6 58 40 -5 c31 -4 42 -2
47 11 7 18 -31 104 -46 104 -5 0 -9 28 -9 63 -1 54 1 60 12 44 12 -16 14 -13
20 27 4 24 13 47 21 50 8 3 15 14 15 24 0 23 19 42 36 35 8 -3 16 5 20 21 3
14 10 26 15 26 5 0 5 -7 2 -17 -4 -11 -3 -14 5 -9 7 4 12 17 12 29 0 12 5 29
10 37 9 13 11 13 19 1 8 -12 13 -12 24 -3 12 10 16 9 22 -5 6 -17 7 -17 17 0
5 11 11 24 12 30 1 7 5 18 9 25 5 6 5 12 1 12 -11 0 29 29 40 30 5 0 4 -6 -3
-13 -6 -8 -12 -40 -13 -73 -1 -32 -7 -62 -12 -66 -11 -7 -11 -116 0 -150 4
-14 2 -18 -5 -14 -7 5 -11 -3 -11 -21 0 -16 4 -23 8 -16 6 9 8 -133 2 -154 -6
-22 3 -99 13 -106 8 -6 6 -7 -5 -3 -20 6 -25 -18 -7 -29 6 -4 8 -14 5 -22 -3
-8 -1 -11 4 -8 6 3 10 1 10 -4 0 -6 9 -11 19 -11 10 0 33 -16 50 -35 34 -39
41 -55 14 -34 -10 8 0 -6 22 -31 21 -25 50 -53 63 -64 13 -10 28 -29 32 -42 6
-14 15 -22 23 -18 9 3 24 -7 37 -23 22 -28 70 -50 70 -32 0 6 4 8 9 5 5 -4 11
-1 13 5 3 9 10 9 26 0 18 -10 23 -9 28 4 8 19 58 20 76 2 22 -22 55 -37 83
-37 15 0 24 -4 20 -10 -4 -6 6 -10 22 -10 30 -1 79 -29 52 -31 -8 -1 -18 -1
-24 1 -5 1 -1 -8 9 -19 15 -16 16 -21 5 -25 -8 -2 -21 -7 -29 -9 -8 -3 0 -6
19 -6 25 -1 32 -5 27 -16 -5 -13 -2 -14 15 -5 11 6 25 9 32 6 7 -2 4 -5 -5 -5
-35 -2 -17 -21 20 -22 l37 -1 -50 -13 c-43 -11 -46 -13 -18 -14 38 -1 56 -21
18 -21 -15 0 -24 -4 -20 -10 3 -5 22 -10 41 -10 19 0 34 -4 34 -10 0 -5 -11
-10 -25 -10 -14 0 -25 -4 -25 -10 0 -5 9 -10 20 -10 25 0 26 -17 3 -23 -13 -3
-11 -5 7 -7 14 -1 28 -2 32 -1 4 0 33 -6 65 -14 31 -8 80 -16 108 -16 29 -1
38 -4 22 -6 -15 -2 -25 -8 -23 -12 3 -4 -18 -4 -47 1 -78 13 -247 19 -247 9 0
-8 37 -12 135 -15 22 0 45 -4 51 -8 6 -4 53 -10 103 -13 51 -2 96 -7 100 -9 4
-3 70 -8 146 -11 119 -6 186 -17 173 -30 -2 -2 -35 0 -73 5 -92 12 -492 24
-483 15 6 -6 175 -18 235 -16 12 0 25 -5 29 -11 5 -7 2 -9 -8 -6 -8 4 -15 1
-15 -5 0 -7 11 -13 24 -13 35 -3 84 -25 77 -35 -3 -5 -2 -9 3 -8 4 1 24 -1 43
-5 36 -7 105 -17 128 -18 6 -1 12 -8 12 -16 0 -11 -9 -12 -41 -7 -29 5 -40 4
-35 -4 4 -6 14 -11 23 -11 8 0 62 -11 119 -26 57 -14 108 -23 112 -20 14 8 96
10 120 2 13 -5 22 -3 22 3 0 6 -7 11 -15 11 -8 0 -15 5 -15 11 0 6 7 9 15 5
18 -6 47 3 40 14 -4 7 22 22 58 34 10 3 17 15 17 31 0 19 5 25 23 25 12 0 31
-7 41 -15 18 -14 18 -15 2 -15 -9 0 -14 -4 -11 -10 3 -5 -3 -10 -14 -10 -12 0
-21 -4 -21 -10 0 -5 6 -10 14 -10 9 0 12 -8 8 -25 -2 -14 -8 -25 -13 -25 -15
0 -10 -27 7 -44 13 -13 13 -16 1 -16 -8 0 -21 -7 -28 -16 -11 -14 -10 -19 10
-35 13 -11 20 -19 15 -19 -4 0 5 -13 20 -29 20 -21 26 -35 21 -50 -4 -12 -2
-21 4 -21 6 0 11 -9 11 -19 0 -10 7 -22 16 -25 13 -5 14 -9 4 -20 -9 -12 -7
-17 12 -27 l23 -12 -28 -10 c-29 -9 -37 -27 -12 -27 13 0 13 -3 3 -20 -7 -11
-20 -20 -28 -21 -8 0 0 -5 18 -10 22 -7 32 -15 29 -23 -3 -8 0 -19 6 -25 8 -8
7 -11 -6 -11 -9 0 -17 -4 -17 -9 0 -5 -9 -13 -20 -16 -20 -6 -20 -7 2 -25 18
-16 20 -19 7 -20 -9 0 -20 -7 -23 -16 -9 -23 -8 -24 16 -24 21 0 21 -1 3 -14
-11 -8 -36 -12 -64 -9 -45 4 -45 3 -23 -13 28 -21 28 -37 0 -28 l-23 6 23 -24
c33 -36 21 -60 -27 -52 -35 6 -36 6 -14 -11 13 -9 23 -25 23 -36 0 -22 0 -22
-34 -9 -14 5 -26 6 -26 1 0 -5 15 -14 33 -21 17 -6 40 -16 49 -21 10 -5 36 -9
57 -9 47 0 85 32 75 63 -4 13 0 20 15 24 12 3 21 9 21 13 0 19 40 20 102 4 62
-16 84 -17 241 -5 94 6 200 15 235 18 l62 6 0 2033 0 2034 -2560 0 -2560 0 0
-2560z m2630 2278 c0 -5 14 -14 30 -19 25 -9 30 -16 30 -44 0 -19 -5 -37 -11
-41 -8 -4 -9 4 -4 27 l7 34 -22 -40 c-12 -22 -30 -47 -41 -57 -10 -9 -19 -20
-19 -26 0 -19 -51 2 -71 29 -11 16 -24 27 -28 25 -4 -3 -8 0 -8 7 0 7 -3 26
-7 42 -5 23 -4 25 3 10 5 -11 10 -14 10 -7 1 7 15 18 32 24 16 6 28 13 25 15
-3 3 0 11 7 17 13 14 67 17 67 4z m-1160 -128 c0 -5 -2 -10 -4 -10 -3 0 -8 5
-11 10 -3 6 -1 10 4 10 6 0 11 -4 11 -10z m-676 -136 c9 -3 16 -17 16 -29 0
-27 -16 -42 -23 -23 -4 10 -8 9 -16 -2 -11 -16 -13 -12 -15 33 -2 27 8 32 38
21z m1866 -223 c0 -11 5 -21 12 -23 10 -4 10 -13 0 -44 -10 -35 -14 -39 -44
-38 -27 1 -33 6 -40 29 -4 16 -5 39 -2 52 5 18 11 22 30 17 14 -4 24 -2 24 4
0 6 -8 13 -17 15 -11 3 -7 5 10 6 20 1 27 -4 27 -18z m498 -1498 c2 -8 -5 -13
-17 -13 -12 0 -21 6 -21 16 0 18 31 15 38 -3z m133 -93 c17 0 9 -25 -11 -38
-11 -7 -20 -21 -20 -32 0 -12 -7 -20 -16 -20 -14 0 -15 2 -3 17 12 14 12 16
-1 8 -8 -5 -5 4 8 19 23 30 29 52 12 41 -5 -3 -10 0 -10 9 0 19 24 27 28 9 2
-7 8 -13 13 -13z m-361 -20 c0 -5 0 -12 0 -15 0 -3 14 -18 32 -33 18 -15 35
-29 38 -33 9 -11 70 -40 70 -33 0 4 6 2 13 -4 12 -9 93 11 124 31 9 6 11 3 7
-7 -9 -24 -63 -46 -124 -52 -50 -5 -59 -3 -103 26 -46 31 -88 93 -79 118 5 15
22 16 22 2z m-1008 -55 c34 -44 60 -64 85 -65 12 0 25 -4 28 -10 10 -17 -34
-11 -85 11 -46 20 -68 41 -82 80 -11 28 28 17 54 -16z m-87 -285 c3 -5 2 -10
-4 -10 -5 0 -13 5 -16 10 -3 6 -2 10 4 10 5 0 13 -4 16 -10z m-579 -287 c18
-18 20 -19 98 -21 70 -3 52 -12 -24 -13 -48 -1 -67 3 -75 15 -7 9 -21 16 -31
16 -16 0 -17 2 -4 10 19 12 16 13 36 -7z m41 1 c-3 -3 -12 -4 -19 -1 -8 3 -5
6 6 6 11 1 17 -2 13 -5z m341 -31 c-27 -2 -69 -2 -95 0 -27 2 -5 3 47 3 52 0
74 -1 48 -3z m1960 -80 c-10 -2 -26 -2 -35 0 -10 3 -2 5 17 5 19 0 27 -2 18
-5z m-2001 -9 c-3 -3 -12 -4 -19 -1 -8 3 -5 6 6 6 11 1 17 -2 13 -5z m2066 -1
c-7 -2 -19 -2 -25 0 -7 3 -2 5 12 5 14 0 19 -2 13 -5z m774 1 c-3 -3 -12 -4
-19 -1 -8 3 -5 6 6 6 11 1 17 -2 13 -5z m-890 -10 c-3 -3 -12 -4 -19 -1 -8 3
-5 6 6 6 11 1 17 -2 13 -5z m160 0 c-3 -3 -12 -4 -19 -1 -8 3 -5 6 6 6 11 1
17 -2 13 -5z m700 -40 c-3 -3 -12 -4 -19 -1 -8 3 -5 6 6 6 11 1 17 -2 13 -5z
m-404 -21 c-7 -2 -21 -2 -30 0 -10 3 -4 5 12 5 17 0 24 -2 18 -5z m214 -9 c-3
-3 -12 -4 -19 -1 -8 3 -5 6 6 6 11 1 17 -2 13 -5z m178 -11 c-11 -3 -23 -10
-27 -17 -6 -8 -8 -7 -8 2 0 7 -3 11 -7 9 -5 -3 -17 -1 -28 4 -14 5 -2 7 35 7
30 0 46 -3 35 -5z m-3098 -39 c-3 -3 -12 -4 -19 -1 -8 3 -5 6 6 6 11 1 17 -2
13 -5z m949 -1 c-8 -8 -97 -43 -109 -43 -22 0 10 21 51 34 54 17 68 19 58 9z
m1521 -9 c-3 -3 -12 -4 -19 -1 -8 3 -5 6 6 6 11 1 17 -2 13 -5z m-1727 -19 c0
-6 -48 -30 -77 -39 -17 -5 -23 -3 -23 8 0 9 15 18 43 24 54 13 57 13 57 7z
m200 -5 c0 -5 -7 -10 -16 -10 -8 0 -12 5 -9 10 3 6 10 10 16 10 5 0 9 -4 9
-10z m-393 -6 c-3 -3 -12 -4 -19 -1 -8 3 -5 6 6 6 11 1 17 -2 13 -5z m223 -14
c0 -5 -12 -10 -27 -9 -25 0 -26 1 -8 9 27 12 35 12 35 0z m-60 -150 c0 -5 -5
-10 -11 -10 -5 0 -7 5 -4 10 3 6 8 10 11 10 2 0 4 -4 4 -10z m-80 -74 c0 -2
-8 -10 -17 -17 -16 -13 -17 -12 -4 4 13 16 21 21 21 13z m-148 -36 c23 -27 8
-33 -59 -24 -52 6 -55 8 -33 17 l25 10 -30 7 c-25 6 -20 8 25 9 44 1 59 -3 72
-19z m608 4 c0 -2 -7 -4 -15 -4 -8 0 -15 4 -15 10 0 5 7 7 15 4 8 -4 15 -8 15
-10z m110 7 c0 -5 -9 -7 -20 -4 -11 3 -20 7 -20 9 0 2 9 4 20 4 11 0 20 -4 20
-9z m-650 -59 c0 -5 -7 -9 -15 -9 -8 0 -12 4 -9 9 3 4 9 8 15 8 5 0 9 -4 9 -8z
m-50 -6 c0 -8 -51 -13 -56 -5 -3 5 9 9 25 9 17 0 31 -2 31 -4z m27 -22 c-3 -3
-12 -4 -19 -1 -8 3 -5 6 6 6 11 1 17 -2 13 -5z m93 -24 c0 -5 -5 -10 -11 -10
-5 0 -7 5 -4 10 3 6 8 10 11 10 2 0 4 -4 4 -10z m45 -40 c3 -5 1 -10 -4 -10
-6 0 -11 5 -11 10 0 6 2 10 4 10 3 0 8 -4 11 -10z m73 -2 c-2 -8 7 -12 25 -11
15 1 27 -2 27 -7 0 -9 -50 -20 -80 -18 -9 1 -28 -2 -44 -6 -26 -6 -28 -5 -17
8 8 9 19 16 26 16 7 0 15 7 19 15 7 18 47 20 44 3z m100 -30 c-3 -7 -24 -19
-49 -26 -24 -7 -56 -17 -71 -21 -17 -6 -28 -6 -28 0 0 5 12 12 28 15 15 4 45
15 67 25 48 22 58 23 53 7z m36 -33 c-19 -14 -19 -14 1 -15 16 -1 14 -4 -10
-15 -16 -8 -40 -14 -53 -15 -20 0 -21 3 -12 20 6 11 17 20 25 20 8 0 15 5 15
10 0 6 12 10 27 10 26 0 26 -1 7 -15z"/>
<path d="M770 4555 c0 -9 5 -15 11 -13 6 2 11 8 11 13 0 5 -5 11 -11 13 -6 2
-11 -4 -11 -13z"/>
<path d="M2270 2251 c0 -5 5 -13 10 -16 6 -3 10 -2 10 4 0 5 -4 13 -10 16 -5
3 -10 2 -10 -4z"/>
<path d="M3178 2163 c7 -3 16 -2 19 1 4 3 -2 6 -13 5 -11 0 -14 -3 -6 -6z"/>
<path d="M3210 2110 c-9 -6 -10 -10 -3 -10 6 0 15 5 18 10 8 12 4 12 -15 0z"/>
<path d="M1953 1982 c-49 -4 -59 -22 -12 -22 16 0 28 -4 25 -9 -6 -9 102 -6
112 3 2 3 14 1 24 -5 13 -7 24 -7 30 -1 14 14 -25 25 -60 18 -15 -4 -38 0 -52
6 -14 7 -44 12 -67 10z"/>
<path d="M1460 1973 c-39 -7 -48 -23 -13 -23 18 0 33 6 37 15 3 8 4 14 3 14
-1 -1 -13 -4 -27 -6z"/>
<path d="M3540 1901 c0 -10 30 -24 37 -17 3 2 -5 9 -16 16 -12 6 -21 7 -21 1z"/>
<path d="M1578 1883 c7 -3 16 -2 19 1 4 3 -2 6 -13 5 -11 0 -14 -3 -6 -6z"/>
<path d="M2550 1870 c0 -5 14 -10 31 -10 17 0 28 4 24 10 -3 6 -17 10 -31 10
-13 0 -24 -4 -24 -10z"/>
<path d="M3440 1876 c0 -2 9 -6 20 -9 11 -3 18 -1 14 4 -5 9 -34 13 -34 5z"/>
<path d="M2635 1850 c-3 -5 2 -10 12 -10 10 0 29 -3 43 -6 24 -5 24 -5 6 10
-22 18 -52 21 -61 6z"/>
<path d="M3550 1850 c8 -5 24 -10 34 -10 26 0 18 6 -19 14 -22 5 -26 4 -15 -4z"/>
<path d="M2778 1843 c7 -3 16 -2 19 1 4 3 -2 6 -13 5 -11 0 -14 -3 -6 -6z"/>
<path d="M2908 1843 c7 -3 16 -2 19 1 4 3 -2 6 -13 5 -11 0 -14 -3 -6 -6z"/>
<path d="M3383 1834 c3 -3 21 -8 39 -9 61 -6 63 -7 33 -14 -29 -7 -28 -8 24
-24 63 -19 91 -21 91 -7 0 7 6 7 19 0 24 -12 41 -13 41 -2 0 5 -17 16 -37 25
-55 23 -229 49 -210 31z m157 -34 c8 -5 12 -11 9 -14 -3 -3 -14 1 -25 9 -21
16 -8 20 16 5z"/>
<path d="M3620 1750 c8 -5 22 -10 30 -10 13 0 13 1 0 10 -8 5 -22 10 -30 10
-13 0 -13 -1 0 -10z"/>
<path d="M3735 1751 c-6 -5 -23 -11 -40 -14 -22 -3 -18 -4 16 -6 35 -1 46 3
46 14 0 17 -9 19 -22 6z"/>
<path d="M3777 1749 c7 -7 15 -10 18 -7 3 3 -2 9 -12 12 -14 6 -15 5 -6 -5z"/>
<path d="M3864 1737 c32 -20 47 -22 118 -18 50 3 -32 28 -116 36 l-38 3 36
-21z"/>
<path d="M3555 1730 c9 -15 76 -30 93 -21 11 6 9 10 -11 15 -14 3 -32 3 -40 0
-8 -3 -18 -1 -22 5 -3 6 -11 11 -16 11 -6 0 -8 -4 -4 -10z"/>
<path d="M3829 1716 c9 -11 6 -13 -16 -10 l-28 4 28 -11 c30 -12 57 -6 57 11
0 6 -4 8 -10 5 -5 -3 -10 -1 -10 4 0 6 -7 11 -16 11 -13 0 -14 -3 -5 -14z"/>
<path d="M4083 1703 c9 -2 23 -2 30 0 6 3 -1 5 -18 5 -16 0 -22 -2 -12 -5z"/>
<path d="M3475 1684 c-22 -8 -41 -14 -43 -14 -2 0 0 -4 3 -10 4 -6 -6 -10 -22
-11 -15 0 -36 -4 -46 -8 -17 -6 -16 -9 7 -34 22 -24 30 -27 68 -21 24 3 59 12
78 19 30 12 95 25 150 31 31 3 34 4 22 16 -6 6 -33 15 -59 18 -27 4 -57 11
-67 15 -16 7 -18 5 -13 -9 6 -16 3 -17 -19 -12 -17 5 -23 3 -19 -4 3 -5 -2
-10 -13 -10 -36 0 -33 14 5 25 25 7 33 13 23 17 -9 3 -34 0 -55 -8z"/>
<path d="M3650 1696 c0 -5 97 -56 106 -56 3 0 3 7 0 16 -3 8 -2 12 4 9 6 -3
10 -2 10 4 0 6 -17 13 -37 16 -21 3 -48 8 -60 11 -13 2 -23 3 -23 0z"/>
<path d="M1605 1670 c3 -5 14 -10 23 -10 15 0 15 2 2 10 -20 13 -33 13 -25 0z"/>
<path d="M3800 1670 c8 -5 20 -10 25 -10 6 0 3 5 -5 10 -8 5 -19 10 -25 10 -5
0 -3 -5 5 -10z"/>
<path d="M2940 1646 c0 -2 8 -10 18 -17 15 -13 16 -12 3 4 -13 16 -21 21 -21
13z"/>
<path d="M3715 1620 c3 -5 13 -10 21 -10 8 0 12 5 9 10 -3 6 -13 10 -21 10 -8
0 -12 -4 -9 -10z"/>
<path d="M3282 1608 c-16 -16 3 -48 29 -48 11 0 28 -4 38 -10 13 -6 24 -5 37
5 12 9 14 14 6 15 -7 0 -25 11 -40 25 -29 27 -52 31 -70 13z m73 -28 c8 -13
-5 -13 -25 0 -13 8 -13 10 2 10 9 0 20 -4 23 -10z"/>
<path d="M3250 1580 c0 -5 5 -10 11 -10 5 0 7 5 4 10 -3 6 -8 10 -11 10 -2 0
-4 -4 -4 -10z"/>
<path d="M3285 1530 c3 -5 14 -10 23 -10 15 0 15 2 2 10 -20 13 -33 13 -25 0z"/>
<path d="M3116 1487 c3 -10 9 -15 12 -12 3 3 0 11 -7 18 -10 9 -11 8 -5 -6z"/>
<path d="M2940 1472 c0 -9 44 -32 58 -32 9 1 -41 39 -50 40 -5 0 -8 -4 -8 -8z"/>
<path d="M3187 1439 c7 -7 15 -10 18 -7 3 3 -2 9 -12 12 -14 6 -15 5 -6 -5z"/>
<path d="M3565 1376 c11 -7 31 -17 45 -21 14 -4 28 -13 32 -19 5 -7 8 -5 8 5
0 10 -16 23 -40 33 -49 20 -71 21 -45 2z"/>
<path d="M3730 1366 c0 -5 54 -36 65 -36 13 0 3 18 -12 23 -10 2 -26 8 -35 12
-10 4 -18 5 -18 1z"/>
<path d="M3417 1346 c-9 -23 4 -54 24 -59 10 -3 19 -1 19 4 0 5 18 7 41 4 34
-4 40 -2 35 10 -8 21 1 19 53 -14 49 -32 151 -53 151 -32 0 6 8 11 18 11 10 0
19 7 19 15 0 19 -67 16 -91 -4 -18 -15 -66 -7 -66 12 0 15 -81 49 -124 53
l-31 2 22 -18 c12 -10 20 -20 17 -23 -4 -3 -16 3 -28 14 -34 33 -53 41 -59 25z
m39 -43 c-7 -7 -26 7 -26 19 0 6 6 6 15 -2 9 -7 13 -15 11 -17z"/>
<path d="M3251 1346 c2 -2 20 -6 39 -10 25 -4 31 -3 20 4 -14 9 -69 15 -59 6z"/>
<path d="M3353 1330 c14 -11 29 -20 33 -20 4 0 -1 9 -11 20 -10 11 -25 20 -33
20 -9 0 -6 -7 11 -20z"/>
<path d="M3605 1330 c3 -5 8 -10 11 -10 2 0 4 5 4 10 0 6 -5 10 -11 10 -5 0
-7 -4 -4 -10z"/>
<path d="M2230 1262 c0 -5 7 -9 15 -9 8 0 15 4 15 9 0 4 -7 8 -15 8 -8 0 -15
-4 -15 -8z"/>
<path d="M3418 1243 c6 -2 18 -2 25 0 6 3 1 5 -13 5 -14 0 -19 -2 -12 -5z"/>
<path d="M2430 1200 c-9 -6 -10 -10 -3 -10 6 0 15 5 18 10 8 12 4 12 -15 0z"/>
<path d="M2630 1109 c0 -11 4 -18 10 -14 5 3 7 12 3 20 -7 21 -13 19 -13 -6z"/>
<path d="M3800 845 c0 -8 9 -10 25 -7 14 2 25 6 25 7 0 1 -11 5 -25 7 -16 3
-25 1 -25 -7z"/>
<path d="M3872 821 c-10 -6 -8 -10 10 -14 12 -4 33 -7 46 -7 13 0 20 -4 17
-10 -4 -6 7 -10 27 -10 57 0 62 -15 10 -29 -33 -10 -41 -15 -27 -19 11 -2 24
-11 28 -18 5 -8 13 -12 19 -8 7 4 6 9 -2 14 -9 5 -9 9 -1 14 6 4 11 2 11 -4 0
-7 13 -9 38 -4 59 11 66 19 27 33 -19 7 -35 18 -35 26 0 8 -7 11 -20 8 -22 -6
-28 12 -7 20 7 4 6 6 -5 6 -9 1 -18 -4 -20 -10 -3 -8 -14 -7 -35 5 -35 18 -61
20 -81 7z"/>
<path d="M4076 791 c-3 -5 8 -14 24 -20 18 -6 28 -6 25 -1 -10 17 -43 31 -49
21z"/>
<path d="M4190 760 c0 -11 5 -20 10 -20 6 0 10 9 10 20 0 11 -4 20 -10 20 -5
0 -10 -9 -10 -20z"/>
<path d="M4235 760 c-3 -5 3 -10 15 -10 12 0 18 5 15 10 -3 6 -10 10 -15 10
-5 0 -12 -4 -15 -10z"/>
<path d="M4150 741 c0 -6 5 -13 10 -16 6 -3 10 1 10 9 0 9 -4 16 -10 16 -5 0
-10 -4 -10 -9z"/>
<path d="M4358 733 c7 -3 16 -2 19 1 4 3 -2 6 -13 5 -11 0 -14 -3 -6 -6z"/>
<path d="M4244 718 c-3 -4 4 -12 15 -18 14 -7 22 -7 26 0 4 6 15 8 26 5 14 -5
17 -3 13 10 -4 11 -17 15 -41 13 -19 -1 -36 -6 -39 -10z"/>
<path d="M3880 700 c0 -5 4 -10 9 -10 6 0 13 5 16 10 3 6 -1 10 -9 10 -9 0
-16 -4 -16 -10z"/>
<path d="M3830 680 c11 -8 8 -10 -15 -8 -56 3 -95 -2 -95 -13 0 -11 48 -8 137
7 41 8 33 24 -10 24 -25 0 -29 -3 -17 -10z"/>
<path d="M4410 666 c0 -7 23 -36 51 -65 48 -47 53 -50 65 -33 13 16 14 15 20
-5 3 -13 11 -23 16 -23 6 0 8 -7 4 -15 -3 -9 0 -15 9 -15 8 0 15 2 15 5 0 13
-54 92 -74 107 -33 28 -44 21 -13 -8 16 -14 26 -28 23 -31 -10 -10 -76 42 -89
70 -13 29 -27 36 -27 13z"/>
<path d="M3555 660 c-3 -5 -19 -10 -35 -10 -16 0 -32 -4 -35 -10 -4 -6 8 -10
29 -10 19 0 42 -3 52 -7 14 -5 16 -3 11 12 -7 16 -5 16 10 4 10 -8 21 -18 25
-24 5 -6 8 -4 8 4 0 8 8 19 17 26 16 12 15 13 -9 8 -14 -3 -35 0 -46 6 -14 7
-23 8 -27 1z"/>
<path d="M3400 650 c-9 -6 -10 -10 -3 -10 6 0 15 5 18 10 8 12 4 12 -15 0z"/>
<path d="M3440 625 c0 -8 5 -15 10 -15 6 0 10 7 10 15 0 8 -4 15 -10 15 -5 0
-10 -7 -10 -15z"/>
<path d="M3340 621 c0 -6 9 -9 20 -8 11 1 20 5 20 9 0 4 -9 8 -20 8 -11 0 -20
-4 -20 -9z"/>
<path d="M3291 594 c0 -11 3 -14 6 -6 3 7 2 16 -1 19 -3 4 -6 -2 -5 -13z"/>
<path d="M4175 539 c22 -6 45 -12 50 -13 6 -1 20 -7 32 -14 12 -7 35 -12 52
-12 33 0 92 -35 120 -72 42 -53 65 -123 73 -223 5 -55 11 -124 14 -152 l6 -53
70 0 70 0 -25 42 c-27 49 -44 103 -27 93 5 -3 10 -12 10 -18 0 -7 11 -36 25
-65 l24 -52 96 1 c52 1 95 5 95 9 0 3 -12 17 -26 31 l-27 24 7 -30 c6 -23 5
-27 -5 -18 -6 6 -18 9 -27 6 -10 -4 -13 -2 -8 5 4 7 1 12 -8 12 -15 0 -21 12
-17 33 1 4 -8 3 -19 -3 -17 -9 -20 -8 -20 7 0 14 -2 15 -9 4 -6 -9 -11 -10
-15 -2 -4 6 0 18 8 27 18 18 21 34 6 34 -5 0 -10 -5 -10 -11 0 -6 -6 -9 -12
-7 -7 3 -13 21 -14 41 -2 48 -12 87 -23 87 -9 0 4 -72 16 -94 4 -7 3 -8 -4 -1
-17 16 -34 81 -27 100 5 13 4 16 -4 11 -13 -8 -14 -6 -16 79 -1 33 -8 70 -15
83 -6 12 -9 28 -5 35 4 6 4 9 -1 5 -4 -4 -17 7 -29 25 l-22 32 -114 6 c-63 3
-153 9 -200 12 -70 5 -78 4 -45 -4z m551 -495 c-3 -8 0 -11 8 -8 7 3 16 -2 19
-10 8 -21 -12 -20 -35 1 -22 20 -23 30 -3 30 9 0 14 -6 11 -13z"/>
<path d="M4600 488 c0 -9 6 -21 14 -27 8 -6 19 -25 26 -42 16 -37 24 -32 10 6
-14 37 -50 82 -50 63z"/>
<path d="M3365 460 c3 -5 8 -10 11 -10 2 0 4 5 4 10 0 6 -5 10 -11 10 -5 0 -7
-4 -4 -10z"/>
<path d="M3855 425 l-40 -14 45 4 c25 2 55 4 68 4 12 1 22 6 22 11 0 14 -47
11 -95 -5z"/>
<path d="M3309 414 c-8 -10 -22 -14 -38 -11 -14 3 -35 0 -46 -6 -11 -6 -36
-12 -55 -12 -114 -4 -120 -5 -120 -21 0 -12 7 -14 31 -9 17 4 53 9 80 10 39 3
49 0 49 -12 0 -13 3 -13 15 -3 8 7 15 18 15 25 0 7 12 13 26 13 14 0 36 9 47
21 12 11 19 21 15 21 -3 0 -11 -7 -19 -16z"/>
<path d="M3051 404 c0 -11 3 -14 6 -6 3 7 2 16 -1 19 -3 4 -6 -2 -5 -13z"/>
<path d="M4675 353 c8 -18 18 -33 20 -33 10 0 4 16 -16 40 l-20 25 16 -32z"/>
<path d="M2980 360 c0 -5 5 -10 10 -10 6 0 10 5 10 10 0 6 -4 10 -10 10 -5 0
-10 -4 -10 -10z"/>
<path d="M3661 268 c-40 -43 -71 -82 -67 -85 3 -3 15 6 27 20 20 27 49 36 49
17 0 -5 -4 -10 -9 -10 -5 0 -11 -11 -13 -25 -3 -14 -2 -25 2 -25 10 0 19 -48
13 -71 -3 -10 -11 -19 -19 -19 -8 0 -11 -6 -8 -15 4 -8 12 -15 19 -15 8 0 11
-8 8 -20 -5 -18 0 -20 47 -20 l51 0 -7 57 c-4 32 -7 67 -7 78 3 50 -10 135
-19 129 -6 -4 -8 1 -5 12 9 35 17 74 15 73 -2 -1 -36 -37 -77 -81z"/>
<path d="M4636 291 c-3 -5 1 -14 8 -20 18 -15 28 0 10 16 -7 7 -15 9 -18 4z"/>
<path d="M3250 284 c0 -12 78 -90 84 -83 2 2 -16 24 -40 49 -24 25 -44 40 -44
34z"/>
<path d="M3083 176 c-12 -12 -24 -33 -28 -47 -9 -34 -48 -35 -53 -1 -3 18 -6
21 -17 12 -12 -10 -10 -15 11 -33 l24 -22 -35 -40 -36 -40 51 -3 c29 -2 55 0
59 3 3 4 6 32 6 63 0 70 9 86 43 77 20 -5 23 -4 15 7 -6 7 -9 21 -8 31 4 22
-5 20 -32 -7z"/>
<path d="M3303 161 c-2 -25 22 -47 32 -30 4 6 -1 20 -12 30 -18 19 -19 19 -20
0z"/>
<path d="M4720 141 c0 -6 4 -13 10 -16 6 -3 7 1 4 9 -7 18 -14 21 -14 7z"/>
<path d="M2804 115 c6 -18 -24 -21 -41 -4 -13 13 -33 4 -33 -16 0 -15 57 -15
151 0 29 5 54 3 68 -4 17 -10 21 -9 21 4 0 9 -4 14 -9 11 -5 -4 -11 -2 -13 4
-4 12 -52 15 -92 4 -21 -5 -27 -4 -22 5 5 7 -1 11 -14 11 -16 0 -20 -5 -16
-15z"/>
<path d="M3641 94 c0 -11 3 -14 6 -6 3 7 2 16 -1 19 -3 4 -6 -2 -5 -13z"/>
<path d="M3080 15 c-11 -13 -6 -15 41 -15 56 0 58 13 3 24 -22 5 -35 2 -44 -9z"/>
</g>
</svg>
